<?xml version="1.0" encoding="utf-8" standalone="no"?>
<!DOCTYPE svg PUBLIC "-//W3C//DTD SVG 1.1//EN"
  "http://www.w3.org/Graphics/SVG/1.1/DTD/svg11.dtd">
<svg xmlns:xlink="http://www.w3.org/1999/xlink" width="460.8pt" height="345.6pt" viewBox="0 0 460.8 345.6" xmlns="http://www.w3.org/2000/svg" version="1.1">
 <metadata>
  <rdf:RDF xmlns:dc="http://purl.org/dc/elements/1.1/" xmlns:cc="http://creativecommons.org/ns#" xmlns:rdf="http://www.w3.org/1999/02/22-rdf-syntax-ns#">
   <cc:Work>
    <dc:type rdf:resource="http://purl.org/dc/dcmitype/StillImage"/>
    <dc:date>2024-01-11T23:35:13.966005</dc:date>
    <dc:format>image/svg+xml</dc:format>
    <dc:creator>
     <cc:Agent>
      <dc:title>Matplotlib v3.7.0, https://matplotlib.org/</dc:title>
     </cc:Agent>
    </dc:creator>
   </cc:Work>
  </rdf:RDF>
 </metadata>
 <defs>
  <style type="text/css">*{stroke-linejoin: round; stroke-linecap: butt}</style>
 </defs>
 <g id="figure_1">
  <g id="patch_1">
   <path d="M 0 345.6 
L 460.8 345.6 
L 460.8 0 
L 0 0 
z
" style="fill: #ffffff"/>
  </g>
  <g id="axes_1">
   <g id="patch_2">
    <path d="M 57.6 307.584 
L 414.72 307.584 
L 414.72 41.472 
L 57.6 41.472 
z
" style="fill: #ffffff"/>
   </g>
   <g id="PolyCollection_1">
    <path d="M 73.832727 206.083917 
L 73.832727 206.083917 
L 75.806311 201.752183 
L 77.779895 197.314517 
L 78.766687 192.783151 
L 80.740271 188.171447 
L 82.713855 183.493765 
L 83.700647 178.765315 
L 85.67423 174.001998 
L 87.647814 169.220229 
L 88.634606 164.436756 
L 90.60819 159.668463 
L 92.581774 154.932179 
L 93.568566 150.244473 
L 95.54215 145.62146 
L 96.528942 141.078609 
L 98.502526 136.630557 
L 100.476109 132.29094 
L 101.462901 128.072231 
L 103.436485 123.985607 
L 105.410069 120.04083 
L 106.396861 116.246157 
L 108.370445 112.608278 
L 110.344029 109.132277 
L 111.330821 105.821635 
L 113.304405 102.678255 
L 115.277988 99.702519 
L 116.26478 96.893386 
L 118.238364 94.248498 
L 120.211948 91.764332 
L 121.19874 89.43636 
L 123.172324 87.259225 
L 125.145908 85.226938 
L 126.1327 83.333069 
L 128.106284 81.570944 
L 130.079867 79.933833 
L 131.066659 78.415123 
L 133.040243 77.008473 
L 134.027035 75.707945 
L 136.000619 74.508109 
L 137.974203 73.404111 
L 138.960995 72.391709 
L 140.934579 71.467279 
L 142.908162 70.627779 
L 143.894954 69.870687 
L 145.868538 69.193904 
L 147.842122 68.595635 
L 148.828914 68.07425 
L 150.802498 67.628133 
L 152.776082 67.255515 
L 153.762874 66.95432 
L 155.736458 66.722008 
L 157.710041 66.555435 
L 158.696833 66.45074 
L 160.670417 66.403246 
L 162.644001 66.407404 
L 163.630793 66.456767 
L 165.604377 66.543999 
L 167.577961 66.660928 
L 168.564753 66.798632 
L 170.538337 66.947565 
L 172.51192 67.097713 
L 173.498712 67.23878 
L 175.472296 67.360397 
L 176.459088 67.452349 
L 178.432672 67.504809 
L 180.406256 67.508581 
L 181.393048 67.455331 
L 183.366632 67.337816 
L 185.340216 67.150086 
L 186.327007 66.887669 
L 188.300591 66.547724 
L 190.274175 66.129159 
L 191.260967 65.632715 
L 193.234551 65.061009 
L 195.208135 64.418538 
L 196.194927 63.711637 
L 198.168511 62.948408 
L 200.142095 62.138597 
L 201.128886 61.293451 
L 203.10247 60.42553 
L 205.076054 59.548503 
L 206.062846 58.67691 
L 208.03643 57.82592 
L 210.010014 57.011063 
L 210.996806 56.247966 
L 212.97039 55.552082 
L 214.943973 54.938428 
L 215.930765 54.421328 
L 217.904349 54.014177 
L 218.891141 53.729221 
L 220.864725 53.577363 
L 222.838309 53.568 
L 223.825101 53.708885 
L 225.798685 54.006032 
L 227.772269 54.463649 
L 228.759061 55.084118 
L 230.732644 55.868001 
L 232.706228 56.81409 
L 233.69302 57.919492 
L 235.666604 59.179745 
L 237.640188 60.588958 
L 238.62698 62.139987 
L 240.600564 63.82462 
L 242.574148 65.633781 
L 243.560939 67.557745 
L 245.534523 69.586356 
L 247.508107 71.709234 
L 248.494899 73.91599 
L 250.468483 76.19641 
L 252.442067 78.540636 
L 253.428859 80.939318 
L 255.402443 83.383745 
L 256.389235 85.865949 
L 258.362818 88.378783 
L 260.336402 90.915976 
L 261.323194 93.472157 
L 263.296778 96.042863 
L 265.270362 98.624517 
L 266.257154 101.2144 
L 268.230738 103.810597 
L 270.204322 106.411941 
L 271.191114 109.017941 
L 273.164697 111.628712 
L 275.138281 114.244896 
L 276.125073 116.867587 
L 278.098657 119.498252 
L 280.072241 122.138657 
L 281.059033 124.790795 
L 283.032617 127.456812 
L 285.006201 130.138936 
L 285.992993 132.839412 
L 287.966576 135.560429 
L 289.94016 138.304052 
L 290.926952 141.072156 
L 292.900536 143.866354 
L 294.87412 146.687932 
L 295.860912 149.537778 
L 297.834496 152.416327 
L 298.821288 155.323495 
L 300.794872 158.258631 
L 302.768455 161.220472 
L 303.755247 164.207116 
L 305.728831 167.215994 
L 307.702415 170.243873 
L 308.689207 173.286862 
L 310.662791 176.340438 
L 312.636375 179.399489 
L 313.623167 182.45837 
L 315.59675 185.510977 
L 317.570334 188.550829 
L 318.557126 191.57116 
L 320.53071 194.565023 
L 322.504294 197.525395 
L 323.491086 200.445282 
L 325.46467 203.317825 
L 327.438254 206.136405 
L 328.425046 208.89473 
L 330.398629 211.586927 
L 332.372213 214.207611 
L 333.359005 216.751954 
L 335.332589 219.215731 
L 336.319381 221.595359 
L 338.292965 223.887926 
L 340.266549 226.091202 
L 341.253341 228.203647 
L 343.226925 230.224405 
L 345.200508 232.153288 
L 346.1873 233.990762 
L 348.160884 235.737915 
L 350.134468 237.396434 
L 351.12126 238.968564 
L 353.094844 240.457075 
L 355.068428 241.865218 
L 356.05522 243.196683 
L 358.028804 244.455555 
L 360.002387 245.646256 
L 360.989179 246.773499 
L 362.962763 247.842231 
L 364.936347 248.857568 
L 365.923139 249.824737 
L 367.896723 250.749005 
L 369.870307 251.635618 
L 370.857099 252.489725 
L 372.830683 253.316311 
L 374.804266 254.12013 
L 375.791058 254.90564 
L 377.764642 255.676941 
L 378.751434 256.437724 
L 380.725018 257.191222 
L 382.698602 257.940177 
L 383.685394 258.686812 
L 385.658978 259.432819 
L 387.632561 260.179356 
L 388.619353 260.927061 
L 390.592937 261.676074 
L 392.566521 262.426069 
L 393.553313 263.176307 
L 395.526897 263.925681 
L 397.500481 264.672782 
L 398.487273 265.415964 
L 398.487273 265.415964 
L 398.487273 295.488 
L 397.500481 295.488 
L 395.526897 295.488 
L 393.553313 295.488 
L 392.566521 295.488 
L 390.592937 295.488 
L 388.619353 295.488 
L 387.632561 295.488 
L 385.658978 295.488 
L 383.685394 295.488 
L 382.698602 295.488 
L 380.725018 295.488 
L 378.751434 295.488 
L 377.764642 295.488 
L 375.791058 295.488 
L 374.804266 295.488 
L 372.830683 295.488 
L 370.857099 295.488 
L 369.870307 295.488 
L 367.896723 295.488 
L 365.923139 295.488 
L 364.936347 295.488 
L 362.962763 295.488 
L 360.989179 295.488 
L 360.002387 295.488 
L 358.028804 295.488 
L 356.05522 295.488 
L 355.068428 295.488 
L 353.094844 295.488 
L 351.12126 295.488 
L 350.134468 295.488 
L 348.160884 295.488 
L 346.1873 295.488 
L 345.200508 295.488 
L 343.226925 295.488 
L 341.253341 295.488 
L 340.266549 295.488 
L 338.292965 295.488 
L 336.319381 295.488 
L 335.332589 295.488 
L 333.359005 295.488 
L 332.372213 295.488 
L 330.398629 295.488 
L 328.425046 295.488 
L 327.438254 295.488 
L 325.46467 295.488 
L 323.491086 295.488 
L 322.504294 295.488 
L 320.53071 295.488 
L 318.557126 295.488 
L 317.570334 295.488 
L 315.59675 295.488 
L 313.623167 295.488 
L 312.636375 295.488 
L 310.662791 295.488 
L 308.689207 295.488 
L 307.702415 295.488 
L 305.728831 295.488 
L 303.755247 295.488 
L 302.768455 295.488 
L 300.794872 295.488 
L 298.821288 295.488 
L 297.834496 295.488 
L 295.860912 295.488 
L 294.87412 295.488 
L 292.900536 295.488 
L 290.926952 295.488 
L 289.94016 295.488 
L 287.966576 295.488 
L 285.992993 295.488 
L 285.006201 295.488 
L 283.032617 295.488 
L 281.059033 295.488 
L 280.072241 295.488 
L 278.098657 295.488 
L 276.125073 295.488 
L 275.138281 295.488 
L 273.164697 295.488 
L 271.191114 295.488 
L 270.204322 295.488 
L 268.230738 295.488 
L 266.257154 295.488 
L 265.270362 295.488 
L 263.296778 295.488 
L 261.323194 295.488 
L 260.336402 295.488 
L 258.362818 295.488 
L 256.389235 295.488 
L 255.402443 295.488 
L 253.428859 295.488 
L 252.442067 295.488 
L 250.468483 295.488 
L 248.494899 295.488 
L 247.508107 295.488 
L 245.534523 295.488 
L 243.560939 295.488 
L 242.574148 295.488 
L 240.600564 295.488 
L 238.62698 295.488 
L 237.640188 295.488 
L 235.666604 295.488 
L 233.69302 295.488 
L 232.706228 295.488 
L 230.732644 295.488 
L 228.759061 295.488 
L 227.772269 295.488 
L 225.798685 295.488 
L 223.825101 295.488 
L 222.838309 295.488 
L 220.864725 295.488 
L 218.891141 295.488 
L 217.904349 295.488 
L 215.930765 295.488 
L 214.943973 295.488 
L 212.97039 295.488 
L 210.996806 295.488 
L 210.010014 295.488 
L 208.03643 295.488 
L 206.062846 295.488 
L 205.076054 295.488 
L 203.10247 295.488 
L 201.128886 295.488 
L 200.142095 295.488 
L 198.168511 295.488 
L 196.194927 295.488 
L 195.208135 295.488 
L 193.234551 295.488 
L 191.260967 295.488 
L 190.274175 295.488 
L 188.300591 295.488 
L 186.327007 295.488 
L 185.340216 295.488 
L 183.366632 295.488 
L 181.393048 295.488 
L 180.406256 295.488 
L 178.432672 295.488 
L 176.459088 295.488 
L 175.472296 295.488 
L 173.498712 295.488 
L 172.51192 295.488 
L 170.538337 295.488 
L 168.564753 295.488 
L 167.577961 295.488 
L 165.604377 295.488 
L 163.630793 295.488 
L 162.644001 295.488 
L 160.670417 295.488 
L 158.696833 295.488 
L 157.710041 295.488 
L 155.736458 295.488 
L 153.762874 295.488 
L 152.776082 295.488 
L 150.802498 295.488 
L 148.828914 295.488 
L 147.842122 295.488 
L 145.868538 295.488 
L 143.894954 295.488 
L 142.908162 295.488 
L 140.934579 295.488 
L 138.960995 295.488 
L 137.974203 295.488 
L 136.000619 295.488 
L 134.027035 295.488 
L 133.040243 295.488 
L 131.066659 295.488 
L 130.079867 295.488 
L 128.106284 295.488 
L 126.1327 295.488 
L 125.145908 295.488 
L 123.172324 295.488 
L 121.19874 295.488 
L 120.211948 295.488 
L 118.238364 295.488 
L 116.26478 295.488 
L 115.277988 295.488 
L 113.304405 295.488 
L 111.330821 295.488 
L 110.344029 295.488 
L 108.370445 295.488 
L 106.396861 295.488 
L 105.410069 295.488 
L 103.436485 295.488 
L 101.462901 295.488 
L 100.476109 295.488 
L 98.502526 295.488 
L 96.528942 295.488 
L 95.54215 295.488 
L 93.568566 295.488 
L 92.581774 295.488 
L 90.60819 295.488 
L 88.634606 295.488 
L 87.647814 295.488 
L 85.67423 295.488 
L 83.700647 295.488 
L 82.713855 295.488 
L 80.740271 295.488 
L 78.766687 295.488 
L 77.779895 295.488 
L 75.806311 295.488 
L 73.832727 295.488 
z
" clip-path="url(#p01d1485c48)" style="fill: #1f77b4; fill-opacity: 0.25"/>
   </g>
   <g id="matplotlib.axis_1">
    <g id="xtick_1">
     <g id="line2d_1">
      <defs>
       <path id="mf31ccf773d" d="M 0 0 
L 0 3.5 
" style="stroke: #000000; stroke-width: 0.8"/>
      </defs>
      <g>
       <use xlink:href="#mf31ccf773d" x="61.991224" y="307.584" style="stroke: #000000; stroke-width: 0.8"/>
      </g>
     </g>
     <g id="text_1">
      <!-- 0.00590 -->
      <g transform="translate(41.314662 322.182437) scale(0.1 -0.1)">
       <defs>
        <path id="DejaVuSans-30" d="M 2034 4250 
Q 1547 4250 1301 3770 
Q 1056 3291 1056 2328 
Q 1056 1369 1301 889 
Q 1547 409 2034 409 
Q 2525 409 2770 889 
Q 3016 1369 3016 2328 
Q 3016 3291 2770 3770 
Q 2525 4250 2034 4250 
z
M 2034 4750 
Q 2819 4750 3233 4129 
Q 3647 3509 3647 2328 
Q 3647 1150 3233 529 
Q 2819 -91 2034 -91 
Q 1250 -91 836 529 
Q 422 1150 422 2328 
Q 422 3509 836 4129 
Q 1250 4750 2034 4750 
z
" transform="scale(0.015625)"/>
        <path id="DejaVuSans-2e" d="M 684 794 
L 1344 794 
L 1344 0 
L 684 0 
L 684 794 
z
" transform="scale(0.015625)"/>
        <path id="DejaVuSans-35" d="M 691 4666 
L 3169 4666 
L 3169 4134 
L 1269 4134 
L 1269 2991 
Q 1406 3038 1543 3061 
Q 1681 3084 1819 3084 
Q 2600 3084 3056 2656 
Q 3513 2228 3513 1497 
Q 3513 744 3044 326 
Q 2575 -91 1722 -91 
Q 1428 -91 1123 -41 
Q 819 9 494 109 
L 494 744 
Q 775 591 1075 516 
Q 1375 441 1709 441 
Q 2250 441 2565 725 
Q 2881 1009 2881 1497 
Q 2881 1984 2565 2268 
Q 2250 2553 1709 2553 
Q 1456 2553 1204 2497 
Q 953 2441 691 2322 
L 691 4666 
z
" transform="scale(0.015625)"/>
        <path id="DejaVuSans-39" d="M 703 97 
L 703 672 
Q 941 559 1184 500 
Q 1428 441 1663 441 
Q 2288 441 2617 861 
Q 2947 1281 2994 2138 
Q 2813 1869 2534 1725 
Q 2256 1581 1919 1581 
Q 1219 1581 811 2004 
Q 403 2428 403 3163 
Q 403 3881 828 4315 
Q 1253 4750 1959 4750 
Q 2769 4750 3195 4129 
Q 3622 3509 3622 2328 
Q 3622 1225 3098 567 
Q 2575 -91 1691 -91 
Q 1453 -91 1209 -44 
Q 966 3 703 97 
z
M 1959 2075 
Q 2384 2075 2632 2365 
Q 2881 2656 2881 3163 
Q 2881 3666 2632 3958 
Q 2384 4250 1959 4250 
Q 1534 4250 1286 3958 
Q 1038 3666 1038 3163 
Q 1038 2656 1286 2365 
Q 1534 2075 1959 2075 
z
" transform="scale(0.015625)"/>
       </defs>
       <use xlink:href="#DejaVuSans-30"/>
       <use xlink:href="#DejaVuSans-2e" x="63.623047"/>
       <use xlink:href="#DejaVuSans-30" x="95.410156"/>
       <use xlink:href="#DejaVuSans-30" x="159.033203"/>
       <use xlink:href="#DejaVuSans-35" x="222.65625"/>
       <use xlink:href="#DejaVuSans-39" x="286.279297"/>
       <use xlink:href="#DejaVuSans-30" x="349.902344"/>
      </g>
     </g>
    </g>
    <g id="xtick_2">
     <g id="line2d_2">
      <g>
       <use xlink:href="#mf31ccf773d" x="111.330821" y="307.584" style="stroke: #000000; stroke-width: 0.8"/>
      </g>
     </g>
     <g id="text_2">
      <!-- 0.00595 -->
      <g transform="translate(90.654258 322.182437) scale(0.1 -0.1)">
       <use xlink:href="#DejaVuSans-30"/>
       <use xlink:href="#DejaVuSans-2e" x="63.623047"/>
       <use xlink:href="#DejaVuSans-30" x="95.410156"/>
       <use xlink:href="#DejaVuSans-30" x="159.033203"/>
       <use xlink:href="#DejaVuSans-35" x="222.65625"/>
       <use xlink:href="#DejaVuSans-39" x="286.279297"/>
       <use xlink:href="#DejaVuSans-35" x="349.902344"/>
      </g>
     </g>
    </g>
    <g id="xtick_3">
     <g id="line2d_3">
      <g>
       <use xlink:href="#mf31ccf773d" x="160.670417" y="307.584" style="stroke: #000000; stroke-width: 0.8"/>
      </g>
     </g>
     <g id="text_3">
      <!-- 0.00600 -->
      <g transform="translate(139.993855 322.182437) scale(0.1 -0.1)">
       <defs>
        <path id="DejaVuSans-36" d="M 2113 2584 
Q 1688 2584 1439 2293 
Q 1191 2003 1191 1497 
Q 1191 994 1439 701 
Q 1688 409 2113 409 
Q 2538 409 2786 701 
Q 3034 994 3034 1497 
Q 3034 2003 2786 2293 
Q 2538 2584 2113 2584 
z
M 3366 4563 
L 3366 3988 
Q 3128 4100 2886 4159 
Q 2644 4219 2406 4219 
Q 1781 4219 1451 3797 
Q 1122 3375 1075 2522 
Q 1259 2794 1537 2939 
Q 1816 3084 2150 3084 
Q 2853 3084 3261 2657 
Q 3669 2231 3669 1497 
Q 3669 778 3244 343 
Q 2819 -91 2113 -91 
Q 1303 -91 875 529 
Q 447 1150 447 2328 
Q 447 3434 972 4092 
Q 1497 4750 2381 4750 
Q 2619 4750 2861 4703 
Q 3103 4656 3366 4563 
z
" transform="scale(0.015625)"/>
       </defs>
       <use xlink:href="#DejaVuSans-30"/>
       <use xlink:href="#DejaVuSans-2e" x="63.623047"/>
       <use xlink:href="#DejaVuSans-30" x="95.410156"/>
       <use xlink:href="#DejaVuSans-30" x="159.033203"/>
       <use xlink:href="#DejaVuSans-36" x="222.65625"/>
       <use xlink:href="#DejaVuSans-30" x="286.279297"/>
       <use xlink:href="#DejaVuSans-30" x="349.902344"/>
      </g>
     </g>
    </g>
    <g id="xtick_4">
     <g id="line2d_4">
      <g>
       <use xlink:href="#mf31ccf773d" x="210.010014" y="307.584" style="stroke: #000000; stroke-width: 0.8"/>
      </g>
     </g>
     <g id="text_4">
      <!-- 0.00605 -->
      <g transform="translate(189.333451 322.182437) scale(0.1 -0.1)">
       <use xlink:href="#DejaVuSans-30"/>
       <use xlink:href="#DejaVuSans-2e" x="63.623047"/>
       <use xlink:href="#DejaVuSans-30" x="95.410156"/>
       <use xlink:href="#DejaVuSans-30" x="159.033203"/>
       <use xlink:href="#DejaVuSans-36" x="222.65625"/>
       <use xlink:href="#DejaVuSans-30" x="286.279297"/>
       <use xlink:href="#DejaVuSans-35" x="349.902344"/>
      </g>
     </g>
    </g>
    <g id="xtick_5">
     <g id="line2d_5">
      <g>
       <use xlink:href="#mf31ccf773d" x="259.34961" y="307.584" style="stroke: #000000; stroke-width: 0.8"/>
      </g>
     </g>
     <g id="text_5">
      <!-- 0.00610 -->
      <g transform="translate(238.673048 322.182437) scale(0.1 -0.1)">
       <defs>
        <path id="DejaVuSans-31" d="M 794 531 
L 1825 531 
L 1825 4091 
L 703 3866 
L 703 4441 
L 1819 4666 
L 2450 4666 
L 2450 531 
L 3481 531 
L 3481 0 
L 794 0 
L 794 531 
z
" transform="scale(0.015625)"/>
       </defs>
       <use xlink:href="#DejaVuSans-30"/>
       <use xlink:href="#DejaVuSans-2e" x="63.623047"/>
       <use xlink:href="#DejaVuSans-30" x="95.410156"/>
       <use xlink:href="#DejaVuSans-30" x="159.033203"/>
       <use xlink:href="#DejaVuSans-36" x="222.65625"/>
       <use xlink:href="#DejaVuSans-31" x="286.279297"/>
       <use xlink:href="#DejaVuSans-30" x="349.902344"/>
      </g>
     </g>
    </g>
    <g id="xtick_6">
     <g id="line2d_6">
      <g>
       <use xlink:href="#mf31ccf773d" x="308.689207" y="307.584" style="stroke: #000000; stroke-width: 0.8"/>
      </g>
     </g>
     <g id="text_6">
      <!-- 0.00615 -->
      <g transform="translate(288.012644 322.182437) scale(0.1 -0.1)">
       <use xlink:href="#DejaVuSans-30"/>
       <use xlink:href="#DejaVuSans-2e" x="63.623047"/>
       <use xlink:href="#DejaVuSans-30" x="95.410156"/>
       <use xlink:href="#DejaVuSans-30" x="159.033203"/>
       <use xlink:href="#DejaVuSans-36" x="222.65625"/>
       <use xlink:href="#DejaVuSans-31" x="286.279297"/>
       <use xlink:href="#DejaVuSans-35" x="349.902344"/>
      </g>
     </g>
    </g>
    <g id="xtick_7">
     <g id="line2d_7">
      <g>
       <use xlink:href="#mf31ccf773d" x="358.028804" y="307.584" style="stroke: #000000; stroke-width: 0.8"/>
      </g>
     </g>
     <g id="text_7">
      <!-- 0.00620 -->
      <g transform="translate(337.352241 322.182437) scale(0.1 -0.1)">
       <defs>
        <path id="DejaVuSans-32" d="M 1228 531 
L 3431 531 
L 3431 0 
L 469 0 
L 469 531 
Q 828 903 1448 1529 
Q 2069 2156 2228 2338 
Q 2531 2678 2651 2914 
Q 2772 3150 2772 3378 
Q 2772 3750 2511 3984 
Q 2250 4219 1831 4219 
Q 1534 4219 1204 4116 
Q 875 4013 500 3803 
L 500 4441 
Q 881 4594 1212 4672 
Q 1544 4750 1819 4750 
Q 2544 4750 2975 4387 
Q 3406 4025 3406 3419 
Q 3406 3131 3298 2873 
Q 3191 2616 2906 2266 
Q 2828 2175 2409 1742 
Q 1991 1309 1228 531 
z
" transform="scale(0.015625)"/>
       </defs>
       <use xlink:href="#DejaVuSans-30"/>
       <use xlink:href="#DejaVuSans-2e" x="63.623047"/>
       <use xlink:href="#DejaVuSans-30" x="95.410156"/>
       <use xlink:href="#DejaVuSans-30" x="159.033203"/>
       <use xlink:href="#DejaVuSans-36" x="222.65625"/>
       <use xlink:href="#DejaVuSans-32" x="286.279297"/>
       <use xlink:href="#DejaVuSans-30" x="349.902344"/>
      </g>
     </g>
    </g>
    <g id="xtick_8">
     <g id="line2d_8">
      <g>
       <use xlink:href="#mf31ccf773d" x="407.3684" y="307.584" style="stroke: #000000; stroke-width: 0.8"/>
      </g>
     </g>
     <g id="text_8">
      <!-- 0.00625 -->
      <g transform="translate(386.691838 322.182437) scale(0.1 -0.1)">
       <use xlink:href="#DejaVuSans-30"/>
       <use xlink:href="#DejaVuSans-2e" x="63.623047"/>
       <use xlink:href="#DejaVuSans-30" x="95.410156"/>
       <use xlink:href="#DejaVuSans-30" x="159.033203"/>
       <use xlink:href="#DejaVuSans-36" x="222.65625"/>
       <use xlink:href="#DejaVuSans-32" x="286.279297"/>
       <use xlink:href="#DejaVuSans-35" x="349.902344"/>
      </g>
     </g>
    </g>
    <g id="text_9">
     <!-- time [s] -->
     <g transform="translate(216.768594 335.860562) scale(0.1 -0.1)">
      <defs>
       <path id="DejaVuSans-74" d="M 1172 4494 
L 1172 3500 
L 2356 3500 
L 2356 3053 
L 1172 3053 
L 1172 1153 
Q 1172 725 1289 603 
Q 1406 481 1766 481 
L 2356 481 
L 2356 0 
L 1766 0 
Q 1100 0 847 248 
Q 594 497 594 1153 
L 594 3053 
L 172 3053 
L 172 3500 
L 594 3500 
L 594 4494 
L 1172 4494 
z
" transform="scale(0.015625)"/>
       <path id="DejaVuSans-69" d="M 603 3500 
L 1178 3500 
L 1178 0 
L 603 0 
L 603 3500 
z
M 603 4863 
L 1178 4863 
L 1178 4134 
L 603 4134 
L 603 4863 
z
" transform="scale(0.015625)"/>
       <path id="DejaVuSans-6d" d="M 3328 2828 
Q 3544 3216 3844 3400 
Q 4144 3584 4550 3584 
Q 5097 3584 5394 3201 
Q 5691 2819 5691 2113 
L 5691 0 
L 5113 0 
L 5113 2094 
Q 5113 2597 4934 2840 
Q 4756 3084 4391 3084 
Q 3944 3084 3684 2787 
Q 3425 2491 3425 1978 
L 3425 0 
L 2847 0 
L 2847 2094 
Q 2847 2600 2669 2842 
Q 2491 3084 2119 3084 
Q 1678 3084 1418 2786 
Q 1159 2488 1159 1978 
L 1159 0 
L 581 0 
L 581 3500 
L 1159 3500 
L 1159 2956 
Q 1356 3278 1631 3431 
Q 1906 3584 2284 3584 
Q 2666 3584 2933 3390 
Q 3200 3197 3328 2828 
z
" transform="scale(0.015625)"/>
       <path id="DejaVuSans-65" d="M 3597 1894 
L 3597 1613 
L 953 1613 
Q 991 1019 1311 708 
Q 1631 397 2203 397 
Q 2534 397 2845 478 
Q 3156 559 3463 722 
L 3463 178 
Q 3153 47 2828 -22 
Q 2503 -91 2169 -91 
Q 1331 -91 842 396 
Q 353 884 353 1716 
Q 353 2575 817 3079 
Q 1281 3584 2069 3584 
Q 2775 3584 3186 3129 
Q 3597 2675 3597 1894 
z
M 3022 2063 
Q 3016 2534 2758 2815 
Q 2500 3097 2075 3097 
Q 1594 3097 1305 2825 
Q 1016 2553 972 2059 
L 3022 2063 
z
" transform="scale(0.015625)"/>
       <path id="DejaVuSans-20" transform="scale(0.015625)"/>
       <path id="DejaVuSans-5b" d="M 550 4863 
L 1875 4863 
L 1875 4416 
L 1125 4416 
L 1125 -397 
L 1875 -397 
L 1875 -844 
L 550 -844 
L 550 4863 
z
" transform="scale(0.015625)"/>
       <path id="DejaVuSans-73" d="M 2834 3397 
L 2834 2853 
Q 2591 2978 2328 3040 
Q 2066 3103 1784 3103 
Q 1356 3103 1142 2972 
Q 928 2841 928 2578 
Q 928 2378 1081 2264 
Q 1234 2150 1697 2047 
L 1894 2003 
Q 2506 1872 2764 1633 
Q 3022 1394 3022 966 
Q 3022 478 2636 193 
Q 2250 -91 1575 -91 
Q 1294 -91 989 -36 
Q 684 19 347 128 
L 347 722 
Q 666 556 975 473 
Q 1284 391 1588 391 
Q 1994 391 2212 530 
Q 2431 669 2431 922 
Q 2431 1156 2273 1281 
Q 2116 1406 1581 1522 
L 1381 1569 
Q 847 1681 609 1914 
Q 372 2147 372 2553 
Q 372 3047 722 3315 
Q 1072 3584 1716 3584 
Q 2034 3584 2315 3537 
Q 2597 3491 2834 3397 
z
" transform="scale(0.015625)"/>
       <path id="DejaVuSans-5d" d="M 1947 4863 
L 1947 -844 
L 622 -844 
L 622 -397 
L 1369 -397 
L 1369 4416 
L 622 4416 
L 622 4863 
L 1947 4863 
z
" transform="scale(0.015625)"/>
      </defs>
      <use xlink:href="#DejaVuSans-74"/>
      <use xlink:href="#DejaVuSans-69" x="39.208984"/>
      <use xlink:href="#DejaVuSans-6d" x="66.992188"/>
      <use xlink:href="#DejaVuSans-65" x="164.404297"/>
      <use xlink:href="#DejaVuSans-20" x="225.927734"/>
      <use xlink:href="#DejaVuSans-5b" x="257.714844"/>
      <use xlink:href="#DejaVuSans-73" x="296.728516"/>
      <use xlink:href="#DejaVuSans-5d" x="348.828125"/>
     </g>
    </g>
   </g>
   <g id="matplotlib.axis_2">
    <g id="ytick_1"/>
    <g id="ytick_2"/>
    <g id="ytick_3"/>
    <g id="ytick_4"/>
    <g id="ytick_5"/>
    <g id="ytick_6"/>
    <g id="ytick_7"/>
    <g id="ytick_8"/>
    <g id="ytick_9"/>
    <g id="text_10">
     <!-- probability density -->
     <g transform="translate(51.520312 221.125656) rotate(-90) scale(0.1 -0.1)">
      <defs>
       <path id="DejaVuSans-70" d="M 1159 525 
L 1159 -1331 
L 581 -1331 
L 581 3500 
L 1159 3500 
L 1159 2969 
Q 1341 3281 1617 3432 
Q 1894 3584 2278 3584 
Q 2916 3584 3314 3078 
Q 3713 2572 3713 1747 
Q 3713 922 3314 415 
Q 2916 -91 2278 -91 
Q 1894 -91 1617 61 
Q 1341 213 1159 525 
z
M 3116 1747 
Q 3116 2381 2855 2742 
Q 2594 3103 2138 3103 
Q 1681 3103 1420 2742 
Q 1159 2381 1159 1747 
Q 1159 1113 1420 752 
Q 1681 391 2138 391 
Q 2594 391 2855 752 
Q 3116 1113 3116 1747 
z
" transform="scale(0.015625)"/>
       <path id="DejaVuSans-72" d="M 2631 2963 
Q 2534 3019 2420 3045 
Q 2306 3072 2169 3072 
Q 1681 3072 1420 2755 
Q 1159 2438 1159 1844 
L 1159 0 
L 581 0 
L 581 3500 
L 1159 3500 
L 1159 2956 
Q 1341 3275 1631 3429 
Q 1922 3584 2338 3584 
Q 2397 3584 2469 3576 
Q 2541 3569 2628 3553 
L 2631 2963 
z
" transform="scale(0.015625)"/>
       <path id="DejaVuSans-6f" d="M 1959 3097 
Q 1497 3097 1228 2736 
Q 959 2375 959 1747 
Q 959 1119 1226 758 
Q 1494 397 1959 397 
Q 2419 397 2687 759 
Q 2956 1122 2956 1747 
Q 2956 2369 2687 2733 
Q 2419 3097 1959 3097 
z
M 1959 3584 
Q 2709 3584 3137 3096 
Q 3566 2609 3566 1747 
Q 3566 888 3137 398 
Q 2709 -91 1959 -91 
Q 1206 -91 779 398 
Q 353 888 353 1747 
Q 353 2609 779 3096 
Q 1206 3584 1959 3584 
z
" transform="scale(0.015625)"/>
       <path id="DejaVuSans-62" d="M 3116 1747 
Q 3116 2381 2855 2742 
Q 2594 3103 2138 3103 
Q 1681 3103 1420 2742 
Q 1159 2381 1159 1747 
Q 1159 1113 1420 752 
Q 1681 391 2138 391 
Q 2594 391 2855 752 
Q 3116 1113 3116 1747 
z
M 1159 2969 
Q 1341 3281 1617 3432 
Q 1894 3584 2278 3584 
Q 2916 3584 3314 3078 
Q 3713 2572 3713 1747 
Q 3713 922 3314 415 
Q 2916 -91 2278 -91 
Q 1894 -91 1617 61 
Q 1341 213 1159 525 
L 1159 0 
L 581 0 
L 581 4863 
L 1159 4863 
L 1159 2969 
z
" transform="scale(0.015625)"/>
       <path id="DejaVuSans-61" d="M 2194 1759 
Q 1497 1759 1228 1600 
Q 959 1441 959 1056 
Q 959 750 1161 570 
Q 1363 391 1709 391 
Q 2188 391 2477 730 
Q 2766 1069 2766 1631 
L 2766 1759 
L 2194 1759 
z
M 3341 1997 
L 3341 0 
L 2766 0 
L 2766 531 
Q 2569 213 2275 61 
Q 1981 -91 1556 -91 
Q 1019 -91 701 211 
Q 384 513 384 1019 
Q 384 1609 779 1909 
Q 1175 2209 1959 2209 
L 2766 2209 
L 2766 2266 
Q 2766 2663 2505 2880 
Q 2244 3097 1772 3097 
Q 1472 3097 1187 3025 
Q 903 2953 641 2809 
L 641 3341 
Q 956 3463 1253 3523 
Q 1550 3584 1831 3584 
Q 2591 3584 2966 3190 
Q 3341 2797 3341 1997 
z
" transform="scale(0.015625)"/>
       <path id="DejaVuSans-6c" d="M 603 4863 
L 1178 4863 
L 1178 0 
L 603 0 
L 603 4863 
z
" transform="scale(0.015625)"/>
       <path id="DejaVuSans-79" d="M 2059 -325 
Q 1816 -950 1584 -1140 
Q 1353 -1331 966 -1331 
L 506 -1331 
L 506 -850 
L 844 -850 
Q 1081 -850 1212 -737 
Q 1344 -625 1503 -206 
L 1606 56 
L 191 3500 
L 800 3500 
L 1894 763 
L 2988 3500 
L 3597 3500 
L 2059 -325 
z
" transform="scale(0.015625)"/>
       <path id="DejaVuSans-64" d="M 2906 2969 
L 2906 4863 
L 3481 4863 
L 3481 0 
L 2906 0 
L 2906 525 
Q 2725 213 2448 61 
Q 2172 -91 1784 -91 
Q 1150 -91 751 415 
Q 353 922 353 1747 
Q 353 2572 751 3078 
Q 1150 3584 1784 3584 
Q 2172 3584 2448 3432 
Q 2725 3281 2906 2969 
z
M 947 1747 
Q 947 1113 1208 752 
Q 1469 391 1925 391 
Q 2381 391 2643 752 
Q 2906 1113 2906 1747 
Q 2906 2381 2643 2742 
Q 2381 3103 1925 3103 
Q 1469 3103 1208 2742 
Q 947 2381 947 1747 
z
" transform="scale(0.015625)"/>
       <path id="DejaVuSans-6e" d="M 3513 2113 
L 3513 0 
L 2938 0 
L 2938 2094 
Q 2938 2591 2744 2837 
Q 2550 3084 2163 3084 
Q 1697 3084 1428 2787 
Q 1159 2491 1159 1978 
L 1159 0 
L 581 0 
L 581 3500 
L 1159 3500 
L 1159 2956 
Q 1366 3272 1645 3428 
Q 1925 3584 2291 3584 
Q 2894 3584 3203 3211 
Q 3513 2838 3513 2113 
z
" transform="scale(0.015625)"/>
      </defs>
      <use xlink:href="#DejaVuSans-70"/>
      <use xlink:href="#DejaVuSans-72" x="63.476562"/>
      <use xlink:href="#DejaVuSans-6f" x="102.339844"/>
      <use xlink:href="#DejaVuSans-62" x="163.521484"/>
      <use xlink:href="#DejaVuSans-61" x="226.998047"/>
      <use xlink:href="#DejaVuSans-62" x="288.277344"/>
      <use xlink:href="#DejaVuSans-69" x="351.753906"/>
      <use xlink:href="#DejaVuSans-6c" x="379.537109"/>
      <use xlink:href="#DejaVuSans-69" x="407.320312"/>
      <use xlink:href="#DejaVuSans-74" x="435.103516"/>
      <use xlink:href="#DejaVuSans-79" x="474.3125"/>
      <use xlink:href="#DejaVuSans-20" x="533.492188"/>
      <use xlink:href="#DejaVuSans-64" x="565.279297"/>
      <use xlink:href="#DejaVuSans-65" x="628.755859"/>
      <use xlink:href="#DejaVuSans-6e" x="690.279297"/>
      <use xlink:href="#DejaVuSans-73" x="753.658203"/>
      <use xlink:href="#DejaVuSans-69" x="805.757812"/>
      <use xlink:href="#DejaVuSans-74" x="833.541016"/>
      <use xlink:href="#DejaVuSans-79" x="872.75"/>
     </g>
    </g>
   </g>
   <g id="LineCollection_1">
    <path d="M 229.745852 295.488 
L 229.745852 55.250867 
" clip-path="url(#p01d1485c48)" style="fill: none; stroke: #1f77b4; stroke-width: 1.5"/>
   </g>
   <g id="patch_3">
    <path d="M 57.6 307.584 
L 57.6 41.472 
" style="fill: none; stroke: #000000; stroke-width: 0.8; stroke-linejoin: miter; stroke-linecap: square"/>
   </g>
   <g id="patch_4">
    <path d="M 414.72 307.584 
L 414.72 41.472 
" style="fill: none; stroke: #000000; stroke-width: 0.8; stroke-linejoin: miter; stroke-linecap: square"/>
   </g>
   <g id="patch_5">
    <path d="M 57.6 307.584 
L 414.72 307.584 
" style="fill: none; stroke: #000000; stroke-width: 0.8; stroke-linejoin: miter; stroke-linecap: square"/>
   </g>
   <g id="patch_6">
    <path d="M 57.6 41.472 
L 414.72 41.472 
" style="fill: none; stroke: #000000; stroke-width: 0.8; stroke-linejoin: miter; stroke-linecap: square"/>
   </g>
   <g id="text_11">
    <!-- exa -->
    <g transform="translate(225.345 35.472) scale(0.12 -0.12)">
     <defs>
      <path id="DejaVuSans-78" d="M 3513 3500 
L 2247 1797 
L 3578 0 
L 2900 0 
L 1881 1375 
L 863 0 
L 184 0 
L 1544 1831 
L 300 3500 
L 978 3500 
L 1906 2253 
L 2834 3500 
L 3513 3500 
z
" transform="scale(0.015625)"/>
     </defs>
     <use xlink:href="#DejaVuSans-65"/>
     <use xlink:href="#DejaVuSans-78" x="59.773438"/>
     <use xlink:href="#DejaVuSans-61" x="118.953125"/>
    </g>
   </g>
  </g>
 </g>
 <defs>
  <clipPath id="p01d1485c48">
   <rect x="57.6" y="41.472" width="357.12" height="266.112"/>
  </clipPath>
 </defs>
</svg>
