<?xml version="1.0" encoding="utf-8" standalone="no"?>
<!DOCTYPE svg PUBLIC "-//W3C//DTD SVG 1.1//EN"
  "http://www.w3.org/Graphics/SVG/1.1/DTD/svg11.dtd">
<svg xmlns:xlink="http://www.w3.org/1999/xlink" width="460.8pt" height="345.6pt" viewBox="0 0 460.8 345.6" xmlns="http://www.w3.org/2000/svg" version="1.1">
 <metadata>
  <rdf:RDF xmlns:dc="http://purl.org/dc/elements/1.1/" xmlns:cc="http://creativecommons.org/ns#" xmlns:rdf="http://www.w3.org/1999/02/22-rdf-syntax-ns#">
   <cc:Work>
    <dc:type rdf:resource="http://purl.org/dc/dcmitype/StillImage"/>
    <dc:date>2024-01-12T22:27:56.475451</dc:date>
    <dc:format>image/svg+xml</dc:format>
    <dc:creator>
     <cc:Agent>
      <dc:title>Matplotlib v3.7.0, https://matplotlib.org/</dc:title>
     </cc:Agent>
    </dc:creator>
   </cc:Work>
  </rdf:RDF>
 </metadata>
 <defs>
  <style type="text/css">*{stroke-linejoin: round; stroke-linecap: butt}</style>
 </defs>
 <g id="figure_1">
  <g id="patch_1">
   <path d="M 0 345.6 
L 460.8 345.6 
L 460.8 0 
L 0 0 
z
" style="fill: #ffffff"/>
  </g>
  <g id="axes_1">
   <g id="patch_2">
    <path d="M 57.6 307.584 
L 414.72 307.584 
L 414.72 41.472 
L 57.6 41.472 
z
" style="fill: #ffffff"/>
   </g>
   <g id="PolyCollection_1">
    <path d="M 73.832727 54.255764 
L 73.832727 54.255764 
L 75.455036 53.597331 
L 77.093408 53.568 
L 78.715717 54.166934 
L 80.354088 55.388246 
L 81.99246 57.221062 
L 83.614769 59.649654 
L 85.25314 62.653632 
L 86.875449 66.20819 
L 88.51382 70.284418 
L 90.136129 74.849639 
L 91.774501 79.867819 
L 93.412872 85.299984 
L 95.035181 91.104671 
L 96.673553 97.238417 
L 98.295862 103.65624 
L 99.934233 110.312126 
L 101.556542 117.159519 
L 103.194914 124.151803 
L 104.833285 131.242753 
L 106.455594 138.386971 
L 108.093965 145.540295 
L 109.716274 152.660165 
L 111.354646 159.705956 
L 112.976955 166.639268 
L 114.615326 173.42417 
L 116.253698 180.027412 
L 117.876007 186.418562 
L 119.514378 192.57014 
L 121.136687 198.457667 
L 122.775059 204.059705 
L 124.397368 209.357836 
L 126.035739 214.336619 
L 127.67411 218.9835 
L 129.296419 223.288722 
L 130.934791 227.245164 
L 132.5571 230.848212 
L 134.195471 234.095575 
L 135.81778 236.987106 
L 137.456152 239.524612 
L 139.078461 241.711661 
L 140.716832 243.553384 
L 142.355204 245.056285 
L 143.977513 246.228058 
L 145.615884 247.0774 
L 147.238193 247.613849 
L 148.876564 247.847626 
L 150.498873 247.789488 
L 152.137245 247.450599 
L 153.775616 246.842423 
L 155.397925 245.976609 
L 157.036297 244.864924 
L 158.658606 243.519165 
L 160.296977 241.951115 
L 161.919286 240.172491 
L 163.557658 238.194924 
L 165.196029 236.029918 
L 166.818338 233.688871 
L 168.456709 231.183045 
L 170.079018 228.523589 
L 171.71739 225.721544 
L 173.339699 222.787867 
L 174.97807 219.733441 
L 176.616442 216.569111 
L 178.238751 213.305695 
L 179.877122 209.954022 
L 181.499431 206.524935 
L 183.137803 203.029332 
L 184.760112 199.47817 
L 186.398483 195.882479 
L 188.036854 192.253378 
L 189.659163 188.602067 
L 191.297535 184.939843 
L 192.919844 181.278066 
L 194.558215 177.628173 
L 196.180524 174.00164 
L 197.818896 170.409956 
L 199.457267 166.864601 
L 201.079576 163.377 
L 202.717948 159.958484 
L 204.340257 156.620236 
L 205.978628 153.373244 
L 207.600937 150.228245 
L 209.239308 147.195667 
L 210.861617 144.285563 
L 212.499989 141.507553 
L 214.13836 138.870762 
L 215.760669 136.383764 
L 217.399041 134.054514 
L 219.02135 131.890298 
L 220.659721 129.897679 
L 222.28203 128.08245 
L 223.920402 126.449594 
L 225.558773 125.003248 
L 227.181082 123.746673 
L 228.819453 122.682237 
L 230.441762 121.811405 
L 232.080134 121.134724 
L 233.702443 120.651848 
L 235.340814 120.361538 
L 236.979186 120.261695 
L 238.601495 120.349382 
L 240.239866 120.620875 
L 241.862175 121.071707 
L 243.500547 121.69672 
L 245.122856 122.490129 
L 246.761227 123.445597 
L 248.399598 124.556288 
L 250.021907 125.814955 
L 251.660279 127.214009 
L 253.282588 128.745605 
L 254.920959 130.401706 
L 256.543268 132.17416 
L 258.18164 134.054786 
L 259.820011 136.035421 
L 261.44232 138.108003 
L 263.080692 140.264623 
L 264.703001 142.497571 
L 266.341372 144.799386 
L 267.963681 147.162906 
L 269.602052 149.581277 
L 271.240424 152.047993 
L 272.862733 154.55691 
L 274.501104 157.102247 
L 276.123413 159.67859 
L 277.761785 162.280896 
L 279.384094 164.904469 
L 281.022465 167.544947 
L 282.644774 170.198287 
L 284.283146 172.860729 
L 285.921517 175.52878 
L 287.543826 178.199172 
L 289.182197 180.868843 
L 290.804506 183.534885 
L 292.442878 186.194539 
L 294.065187 188.845147 
L 295.703558 191.484128 
L 297.34193 194.108958 
L 298.964239 196.71714 
L 300.60261 199.306191 
L 302.224919 201.873627 
L 303.863291 204.416958 
L 305.4856 206.933669 
L 307.123971 209.421227 
L 308.762342 211.877086 
L 310.384651 214.298693 
L 312.023023 216.683488 
L 313.645332 219.028933 
L 315.283703 221.332515 
L 316.906012 223.591773 
L 318.544384 225.804312 
L 320.182755 227.967832 
L 321.805064 230.080143 
L 323.443436 232.139193 
L 325.065745 234.143082 
L 326.704116 236.09009 
L 328.326425 237.978692 
L 329.964796 239.807574 
L 331.603168 241.575655 
L 333.225477 243.282085 
L 334.863848 244.926271 
L 336.486157 246.50787 
L 338.124529 248.026794 
L 339.746838 249.483216 
L 341.385209 250.877566 
L 343.023581 252.210509 
L 344.64589 253.482963 
L 346.284261 254.696064 
L 347.90657 255.851161 
L 349.544941 256.949804 
L 351.16725 257.993716 
L 352.805622 258.984784 
L 354.443993 259.925036 
L 356.066302 260.816612 
L 357.704674 261.66176 
L 359.326983 262.462802 
L 360.965354 263.222109 
L 362.587663 263.942102 
L 364.226035 264.62521 
L 365.848344 265.273867 
L 367.486715 265.890483 
L 369.125086 266.477442 
L 370.747395 267.037077 
L 372.385767 267.571655 
L 374.008076 268.083376 
L 375.646447 268.574353 
L 377.268756 269.046613 
L 378.907128 269.50207 
L 380.545499 269.942545 
L 382.167808 270.369738 
L 383.80618 270.78523 
L 385.428489 271.190488 
L 387.06686 271.586853 
L 388.689169 271.975533 
L 390.32754 272.357619 
L 391.965912 272.734067 
L 393.588221 273.105712 
L 395.226592 273.473253 
L 396.848901 273.83727 
L 398.487273 274.198219 
L 398.487273 274.198219 
L 398.487273 295.488 
L 396.848901 295.488 
L 395.226592 295.488 
L 393.588221 295.488 
L 391.965912 295.488 
L 390.32754 295.488 
L 388.689169 295.488 
L 387.06686 295.488 
L 385.428489 295.488 
L 383.80618 295.488 
L 382.167808 295.488 
L 380.545499 295.488 
L 378.907128 295.488 
L 377.268756 295.488 
L 375.646447 295.488 
L 374.008076 295.488 
L 372.385767 295.488 
L 370.747395 295.488 
L 369.125086 295.488 
L 367.486715 295.488 
L 365.848344 295.488 
L 364.226035 295.488 
L 362.587663 295.488 
L 360.965354 295.488 
L 359.326983 295.488 
L 357.704674 295.488 
L 356.066302 295.488 
L 354.443993 295.488 
L 352.805622 295.488 
L 351.16725 295.488 
L 349.544941 295.488 
L 347.90657 295.488 
L 346.284261 295.488 
L 344.64589 295.488 
L 343.023581 295.488 
L 341.385209 295.488 
L 339.746838 295.488 
L 338.124529 295.488 
L 336.486157 295.488 
L 334.863848 295.488 
L 333.225477 295.488 
L 331.603168 295.488 
L 329.964796 295.488 
L 328.326425 295.488 
L 326.704116 295.488 
L 325.065745 295.488 
L 323.443436 295.488 
L 321.805064 295.488 
L 320.182755 295.488 
L 318.544384 295.488 
L 316.906012 295.488 
L 315.283703 295.488 
L 313.645332 295.488 
L 312.023023 295.488 
L 310.384651 295.488 
L 308.762342 295.488 
L 307.123971 295.488 
L 305.4856 295.488 
L 303.863291 295.488 
L 302.224919 295.488 
L 300.60261 295.488 
L 298.964239 295.488 
L 297.34193 295.488 
L 295.703558 295.488 
L 294.065187 295.488 
L 292.442878 295.488 
L 290.804506 295.488 
L 289.182197 295.488 
L 287.543826 295.488 
L 285.921517 295.488 
L 284.283146 295.488 
L 282.644774 295.488 
L 281.022465 295.488 
L 279.384094 295.488 
L 277.761785 295.488 
L 276.123413 295.488 
L 274.501104 295.488 
L 272.862733 295.488 
L 271.240424 295.488 
L 269.602052 295.488 
L 267.963681 295.488 
L 266.341372 295.488 
L 264.703001 295.488 
L 263.080692 295.488 
L 261.44232 295.488 
L 259.820011 295.488 
L 258.18164 295.488 
L 256.543268 295.488 
L 254.920959 295.488 
L 253.282588 295.488 
L 251.660279 295.488 
L 250.021907 295.488 
L 248.399598 295.488 
L 246.761227 295.488 
L 245.122856 295.488 
L 243.500547 295.488 
L 241.862175 295.488 
L 240.239866 295.488 
L 238.601495 295.488 
L 236.979186 295.488 
L 235.340814 295.488 
L 233.702443 295.488 
L 232.080134 295.488 
L 230.441762 295.488 
L 228.819453 295.488 
L 227.181082 295.488 
L 225.558773 295.488 
L 223.920402 295.488 
L 222.28203 295.488 
L 220.659721 295.488 
L 219.02135 295.488 
L 217.399041 295.488 
L 215.760669 295.488 
L 214.13836 295.488 
L 212.499989 295.488 
L 210.861617 295.488 
L 209.239308 295.488 
L 207.600937 295.488 
L 205.978628 295.488 
L 204.340257 295.488 
L 202.717948 295.488 
L 201.079576 295.488 
L 199.457267 295.488 
L 197.818896 295.488 
L 196.180524 295.488 
L 194.558215 295.488 
L 192.919844 295.488 
L 191.297535 295.488 
L 189.659163 295.488 
L 188.036854 295.488 
L 186.398483 295.488 
L 184.760112 295.488 
L 183.137803 295.488 
L 181.499431 295.488 
L 179.877122 295.488 
L 178.238751 295.488 
L 176.616442 295.488 
L 174.97807 295.488 
L 173.339699 295.488 
L 171.71739 295.488 
L 170.079018 295.488 
L 168.456709 295.488 
L 166.818338 295.488 
L 165.196029 295.488 
L 163.557658 295.488 
L 161.919286 295.488 
L 160.296977 295.488 
L 158.658606 295.488 
L 157.036297 295.488 
L 155.397925 295.488 
L 153.775616 295.488 
L 152.137245 295.488 
L 150.498873 295.488 
L 148.876564 295.488 
L 147.238193 295.488 
L 145.615884 295.488 
L 143.977513 295.488 
L 142.355204 295.488 
L 140.716832 295.488 
L 139.078461 295.488 
L 137.456152 295.488 
L 135.81778 295.488 
L 134.195471 295.488 
L 132.5571 295.488 
L 130.934791 295.488 
L 129.296419 295.488 
L 127.67411 295.488 
L 126.035739 295.488 
L 124.397368 295.488 
L 122.775059 295.488 
L 121.136687 295.488 
L 119.514378 295.488 
L 117.876007 295.488 
L 116.253698 295.488 
L 114.615326 295.488 
L 112.976955 295.488 
L 111.354646 295.488 
L 109.716274 295.488 
L 108.093965 295.488 
L 106.455594 295.488 
L 104.833285 295.488 
L 103.194914 295.488 
L 101.556542 295.488 
L 99.934233 295.488 
L 98.295862 295.488 
L 96.673553 295.488 
L 95.035181 295.488 
L 93.412872 295.488 
L 91.774501 295.488 
L 90.136129 295.488 
L 88.51382 295.488 
L 86.875449 295.488 
L 85.25314 295.488 
L 83.614769 295.488 
L 81.99246 295.488 
L 80.354088 295.488 
L 78.715717 295.488 
L 77.093408 295.488 
L 75.455036 295.488 
L 73.832727 295.488 
z
" clip-path="url(#p2476814fff)" style="fill: #1f77b4; fill-opacity: 0.25"/>
   </g>
   <g id="matplotlib.axis_1">
    <g id="xtick_1">
     <g id="line2d_1">
      <defs>
       <path id="mce152c4354" d="M 0 0 
L 0 3.5 
" style="stroke: #000000; stroke-width: 0.8"/>
      </defs>
      <g>
       <use xlink:href="#mce152c4354" x="84.417892" y="307.584" style="stroke: #000000; stroke-width: 0.8"/>
      </g>
     </g>
     <g id="text_1">
      <!-- 0.0050 -->
      <g transform="translate(66.922579 322.182437) scale(0.1 -0.1)">
       <defs>
        <path id="DejaVuSans-30" d="M 2034 4250 
Q 1547 4250 1301 3770 
Q 1056 3291 1056 2328 
Q 1056 1369 1301 889 
Q 1547 409 2034 409 
Q 2525 409 2770 889 
Q 3016 1369 3016 2328 
Q 3016 3291 2770 3770 
Q 2525 4250 2034 4250 
z
M 2034 4750 
Q 2819 4750 3233 4129 
Q 3647 3509 3647 2328 
Q 3647 1150 3233 529 
Q 2819 -91 2034 -91 
Q 1250 -91 836 529 
Q 422 1150 422 2328 
Q 422 3509 836 4129 
Q 1250 4750 2034 4750 
z
" transform="scale(0.015625)"/>
        <path id="DejaVuSans-2e" d="M 684 794 
L 1344 794 
L 1344 0 
L 684 0 
L 684 794 
z
" transform="scale(0.015625)"/>
        <path id="DejaVuSans-35" d="M 691 4666 
L 3169 4666 
L 3169 4134 
L 1269 4134 
L 1269 2991 
Q 1406 3038 1543 3061 
Q 1681 3084 1819 3084 
Q 2600 3084 3056 2656 
Q 3513 2228 3513 1497 
Q 3513 744 3044 326 
Q 2575 -91 1722 -91 
Q 1428 -91 1123 -41 
Q 819 9 494 109 
L 494 744 
Q 775 591 1075 516 
Q 1375 441 1709 441 
Q 2250 441 2565 725 
Q 2881 1009 2881 1497 
Q 2881 1984 2565 2268 
Q 2250 2553 1709 2553 
Q 1456 2553 1204 2497 
Q 953 2441 691 2322 
L 691 4666 
z
" transform="scale(0.015625)"/>
       </defs>
       <use xlink:href="#DejaVuSans-30"/>
       <use xlink:href="#DejaVuSans-2e" x="63.623047"/>
       <use xlink:href="#DejaVuSans-30" x="95.410156"/>
       <use xlink:href="#DejaVuSans-30" x="159.033203"/>
       <use xlink:href="#DejaVuSans-35" x="222.65625"/>
       <use xlink:href="#DejaVuSans-30" x="286.279297"/>
      </g>
     </g>
    </g>
    <g id="xtick_2">
     <g id="line2d_2">
      <g>
       <use xlink:href="#mce152c4354" x="124.574055" y="307.584" style="stroke: #000000; stroke-width: 0.8"/>
      </g>
     </g>
     <g id="text_2">
      <!-- 0.0075 -->
      <g transform="translate(107.078742 322.182437) scale(0.1 -0.1)">
       <defs>
        <path id="DejaVuSans-37" d="M 525 4666 
L 3525 4666 
L 3525 4397 
L 1831 0 
L 1172 0 
L 2766 4134 
L 525 4134 
L 525 4666 
z
" transform="scale(0.015625)"/>
       </defs>
       <use xlink:href="#DejaVuSans-30"/>
       <use xlink:href="#DejaVuSans-2e" x="63.623047"/>
       <use xlink:href="#DejaVuSans-30" x="95.410156"/>
       <use xlink:href="#DejaVuSans-30" x="159.033203"/>
       <use xlink:href="#DejaVuSans-37" x="222.65625"/>
       <use xlink:href="#DejaVuSans-35" x="286.279297"/>
      </g>
     </g>
    </g>
    <g id="xtick_3">
     <g id="line2d_3">
      <g>
       <use xlink:href="#mce152c4354" x="164.730218" y="307.584" style="stroke: #000000; stroke-width: 0.8"/>
      </g>
     </g>
     <g id="text_3">
      <!-- 0.0100 -->
      <g transform="translate(147.234905 322.182437) scale(0.1 -0.1)">
       <defs>
        <path id="DejaVuSans-31" d="M 794 531 
L 1825 531 
L 1825 4091 
L 703 3866 
L 703 4441 
L 1819 4666 
L 2450 4666 
L 2450 531 
L 3481 531 
L 3481 0 
L 794 0 
L 794 531 
z
" transform="scale(0.015625)"/>
       </defs>
       <use xlink:href="#DejaVuSans-30"/>
       <use xlink:href="#DejaVuSans-2e" x="63.623047"/>
       <use xlink:href="#DejaVuSans-30" x="95.410156"/>
       <use xlink:href="#DejaVuSans-31" x="159.033203"/>
       <use xlink:href="#DejaVuSans-30" x="222.65625"/>
       <use xlink:href="#DejaVuSans-30" x="286.279297"/>
      </g>
     </g>
    </g>
    <g id="xtick_4">
     <g id="line2d_4">
      <g>
       <use xlink:href="#mce152c4354" x="204.88638" y="307.584" style="stroke: #000000; stroke-width: 0.8"/>
      </g>
     </g>
     <g id="text_4">
      <!-- 0.0125 -->
      <g transform="translate(187.391068 322.182437) scale(0.1 -0.1)">
       <defs>
        <path id="DejaVuSans-32" d="M 1228 531 
L 3431 531 
L 3431 0 
L 469 0 
L 469 531 
Q 828 903 1448 1529 
Q 2069 2156 2228 2338 
Q 2531 2678 2651 2914 
Q 2772 3150 2772 3378 
Q 2772 3750 2511 3984 
Q 2250 4219 1831 4219 
Q 1534 4219 1204 4116 
Q 875 4013 500 3803 
L 500 4441 
Q 881 4594 1212 4672 
Q 1544 4750 1819 4750 
Q 2544 4750 2975 4387 
Q 3406 4025 3406 3419 
Q 3406 3131 3298 2873 
Q 3191 2616 2906 2266 
Q 2828 2175 2409 1742 
Q 1991 1309 1228 531 
z
" transform="scale(0.015625)"/>
       </defs>
       <use xlink:href="#DejaVuSans-30"/>
       <use xlink:href="#DejaVuSans-2e" x="63.623047"/>
       <use xlink:href="#DejaVuSans-30" x="95.410156"/>
       <use xlink:href="#DejaVuSans-31" x="159.033203"/>
       <use xlink:href="#DejaVuSans-32" x="222.65625"/>
       <use xlink:href="#DejaVuSans-35" x="286.279297"/>
      </g>
     </g>
    </g>
    <g id="xtick_5">
     <g id="line2d_5">
      <g>
       <use xlink:href="#mce152c4354" x="245.042543" y="307.584" style="stroke: #000000; stroke-width: 0.8"/>
      </g>
     </g>
     <g id="text_5">
      <!-- 0.0150 -->
      <g transform="translate(227.547231 322.182437) scale(0.1 -0.1)">
       <use xlink:href="#DejaVuSans-30"/>
       <use xlink:href="#DejaVuSans-2e" x="63.623047"/>
       <use xlink:href="#DejaVuSans-30" x="95.410156"/>
       <use xlink:href="#DejaVuSans-31" x="159.033203"/>
       <use xlink:href="#DejaVuSans-35" x="222.65625"/>
       <use xlink:href="#DejaVuSans-30" x="286.279297"/>
      </g>
     </g>
    </g>
    <g id="xtick_6">
     <g id="line2d_6">
      <g>
       <use xlink:href="#mce152c4354" x="285.198706" y="307.584" style="stroke: #000000; stroke-width: 0.8"/>
      </g>
     </g>
     <g id="text_6">
      <!-- 0.0175 -->
      <g transform="translate(267.703394 322.182437) scale(0.1 -0.1)">
       <use xlink:href="#DejaVuSans-30"/>
       <use xlink:href="#DejaVuSans-2e" x="63.623047"/>
       <use xlink:href="#DejaVuSans-30" x="95.410156"/>
       <use xlink:href="#DejaVuSans-31" x="159.033203"/>
       <use xlink:href="#DejaVuSans-37" x="222.65625"/>
       <use xlink:href="#DejaVuSans-35" x="286.279297"/>
      </g>
     </g>
    </g>
    <g id="xtick_7">
     <g id="line2d_7">
      <g>
       <use xlink:href="#mce152c4354" x="325.354869" y="307.584" style="stroke: #000000; stroke-width: 0.8"/>
      </g>
     </g>
     <g id="text_7">
      <!-- 0.0200 -->
      <g transform="translate(307.859556 322.182437) scale(0.1 -0.1)">
       <use xlink:href="#DejaVuSans-30"/>
       <use xlink:href="#DejaVuSans-2e" x="63.623047"/>
       <use xlink:href="#DejaVuSans-30" x="95.410156"/>
       <use xlink:href="#DejaVuSans-32" x="159.033203"/>
       <use xlink:href="#DejaVuSans-30" x="222.65625"/>
       <use xlink:href="#DejaVuSans-30" x="286.279297"/>
      </g>
     </g>
    </g>
    <g id="xtick_8">
     <g id="line2d_8">
      <g>
       <use xlink:href="#mce152c4354" x="365.511032" y="307.584" style="stroke: #000000; stroke-width: 0.8"/>
      </g>
     </g>
     <g id="text_8">
      <!-- 0.0225 -->
      <g transform="translate(348.015719 322.182437) scale(0.1 -0.1)">
       <use xlink:href="#DejaVuSans-30"/>
       <use xlink:href="#DejaVuSans-2e" x="63.623047"/>
       <use xlink:href="#DejaVuSans-30" x="95.410156"/>
       <use xlink:href="#DejaVuSans-32" x="159.033203"/>
       <use xlink:href="#DejaVuSans-32" x="222.65625"/>
       <use xlink:href="#DejaVuSans-35" x="286.279297"/>
      </g>
     </g>
    </g>
    <g id="xtick_9">
     <g id="line2d_9">
      <g>
       <use xlink:href="#mce152c4354" x="405.667195" y="307.584" style="stroke: #000000; stroke-width: 0.8"/>
      </g>
     </g>
     <g id="text_9">
      <!-- 0.0250 -->
      <g transform="translate(388.171882 322.182437) scale(0.1 -0.1)">
       <use xlink:href="#DejaVuSans-30"/>
       <use xlink:href="#DejaVuSans-2e" x="63.623047"/>
       <use xlink:href="#DejaVuSans-30" x="95.410156"/>
       <use xlink:href="#DejaVuSans-32" x="159.033203"/>
       <use xlink:href="#DejaVuSans-35" x="222.65625"/>
       <use xlink:href="#DejaVuSans-30" x="286.279297"/>
      </g>
     </g>
    </g>
    <g id="text_10">
     <!-- time [s] -->
     <g transform="translate(216.768594 335.860562) scale(0.1 -0.1)">
      <defs>
       <path id="DejaVuSans-74" d="M 1172 4494 
L 1172 3500 
L 2356 3500 
L 2356 3053 
L 1172 3053 
L 1172 1153 
Q 1172 725 1289 603 
Q 1406 481 1766 481 
L 2356 481 
L 2356 0 
L 1766 0 
Q 1100 0 847 248 
Q 594 497 594 1153 
L 594 3053 
L 172 3053 
L 172 3500 
L 594 3500 
L 594 4494 
L 1172 4494 
z
" transform="scale(0.015625)"/>
       <path id="DejaVuSans-69" d="M 603 3500 
L 1178 3500 
L 1178 0 
L 603 0 
L 603 3500 
z
M 603 4863 
L 1178 4863 
L 1178 4134 
L 603 4134 
L 603 4863 
z
" transform="scale(0.015625)"/>
       <path id="DejaVuSans-6d" d="M 3328 2828 
Q 3544 3216 3844 3400 
Q 4144 3584 4550 3584 
Q 5097 3584 5394 3201 
Q 5691 2819 5691 2113 
L 5691 0 
L 5113 0 
L 5113 2094 
Q 5113 2597 4934 2840 
Q 4756 3084 4391 3084 
Q 3944 3084 3684 2787 
Q 3425 2491 3425 1978 
L 3425 0 
L 2847 0 
L 2847 2094 
Q 2847 2600 2669 2842 
Q 2491 3084 2119 3084 
Q 1678 3084 1418 2786 
Q 1159 2488 1159 1978 
L 1159 0 
L 581 0 
L 581 3500 
L 1159 3500 
L 1159 2956 
Q 1356 3278 1631 3431 
Q 1906 3584 2284 3584 
Q 2666 3584 2933 3390 
Q 3200 3197 3328 2828 
z
" transform="scale(0.015625)"/>
       <path id="DejaVuSans-65" d="M 3597 1894 
L 3597 1613 
L 953 1613 
Q 991 1019 1311 708 
Q 1631 397 2203 397 
Q 2534 397 2845 478 
Q 3156 559 3463 722 
L 3463 178 
Q 3153 47 2828 -22 
Q 2503 -91 2169 -91 
Q 1331 -91 842 396 
Q 353 884 353 1716 
Q 353 2575 817 3079 
Q 1281 3584 2069 3584 
Q 2775 3584 3186 3129 
Q 3597 2675 3597 1894 
z
M 3022 2063 
Q 3016 2534 2758 2815 
Q 2500 3097 2075 3097 
Q 1594 3097 1305 2825 
Q 1016 2553 972 2059 
L 3022 2063 
z
" transform="scale(0.015625)"/>
       <path id="DejaVuSans-20" transform="scale(0.015625)"/>
       <path id="DejaVuSans-5b" d="M 550 4863 
L 1875 4863 
L 1875 4416 
L 1125 4416 
L 1125 -397 
L 1875 -397 
L 1875 -844 
L 550 -844 
L 550 4863 
z
" transform="scale(0.015625)"/>
       <path id="DejaVuSans-73" d="M 2834 3397 
L 2834 2853 
Q 2591 2978 2328 3040 
Q 2066 3103 1784 3103 
Q 1356 3103 1142 2972 
Q 928 2841 928 2578 
Q 928 2378 1081 2264 
Q 1234 2150 1697 2047 
L 1894 2003 
Q 2506 1872 2764 1633 
Q 3022 1394 3022 966 
Q 3022 478 2636 193 
Q 2250 -91 1575 -91 
Q 1294 -91 989 -36 
Q 684 19 347 128 
L 347 722 
Q 666 556 975 473 
Q 1284 391 1588 391 
Q 1994 391 2212 530 
Q 2431 669 2431 922 
Q 2431 1156 2273 1281 
Q 2116 1406 1581 1522 
L 1381 1569 
Q 847 1681 609 1914 
Q 372 2147 372 2553 
Q 372 3047 722 3315 
Q 1072 3584 1716 3584 
Q 2034 3584 2315 3537 
Q 2597 3491 2834 3397 
z
" transform="scale(0.015625)"/>
       <path id="DejaVuSans-5d" d="M 1947 4863 
L 1947 -844 
L 622 -844 
L 622 -397 
L 1369 -397 
L 1369 4416 
L 622 4416 
L 622 4863 
L 1947 4863 
z
" transform="scale(0.015625)"/>
      </defs>
      <use xlink:href="#DejaVuSans-74"/>
      <use xlink:href="#DejaVuSans-69" x="39.208984"/>
      <use xlink:href="#DejaVuSans-6d" x="66.992188"/>
      <use xlink:href="#DejaVuSans-65" x="164.404297"/>
      <use xlink:href="#DejaVuSans-20" x="225.927734"/>
      <use xlink:href="#DejaVuSans-5b" x="257.714844"/>
      <use xlink:href="#DejaVuSans-73" x="296.728516"/>
      <use xlink:href="#DejaVuSans-5d" x="348.828125"/>
     </g>
    </g>
   </g>
   <g id="matplotlib.axis_2">
    <g id="ytick_1"/>
    <g id="ytick_2"/>
    <g id="ytick_3"/>
    <g id="ytick_4"/>
    <g id="ytick_5"/>
    <g id="text_11">
     <!-- probability density -->
     <g transform="translate(51.520312 221.125656) rotate(-90) scale(0.1 -0.1)">
      <defs>
       <path id="DejaVuSans-70" d="M 1159 525 
L 1159 -1331 
L 581 -1331 
L 581 3500 
L 1159 3500 
L 1159 2969 
Q 1341 3281 1617 3432 
Q 1894 3584 2278 3584 
Q 2916 3584 3314 3078 
Q 3713 2572 3713 1747 
Q 3713 922 3314 415 
Q 2916 -91 2278 -91 
Q 1894 -91 1617 61 
Q 1341 213 1159 525 
z
M 3116 1747 
Q 3116 2381 2855 2742 
Q 2594 3103 2138 3103 
Q 1681 3103 1420 2742 
Q 1159 2381 1159 1747 
Q 1159 1113 1420 752 
Q 1681 391 2138 391 
Q 2594 391 2855 752 
Q 3116 1113 3116 1747 
z
" transform="scale(0.015625)"/>
       <path id="DejaVuSans-72" d="M 2631 2963 
Q 2534 3019 2420 3045 
Q 2306 3072 2169 3072 
Q 1681 3072 1420 2755 
Q 1159 2438 1159 1844 
L 1159 0 
L 581 0 
L 581 3500 
L 1159 3500 
L 1159 2956 
Q 1341 3275 1631 3429 
Q 1922 3584 2338 3584 
Q 2397 3584 2469 3576 
Q 2541 3569 2628 3553 
L 2631 2963 
z
" transform="scale(0.015625)"/>
       <path id="DejaVuSans-6f" d="M 1959 3097 
Q 1497 3097 1228 2736 
Q 959 2375 959 1747 
Q 959 1119 1226 758 
Q 1494 397 1959 397 
Q 2419 397 2687 759 
Q 2956 1122 2956 1747 
Q 2956 2369 2687 2733 
Q 2419 3097 1959 3097 
z
M 1959 3584 
Q 2709 3584 3137 3096 
Q 3566 2609 3566 1747 
Q 3566 888 3137 398 
Q 2709 -91 1959 -91 
Q 1206 -91 779 398 
Q 353 888 353 1747 
Q 353 2609 779 3096 
Q 1206 3584 1959 3584 
z
" transform="scale(0.015625)"/>
       <path id="DejaVuSans-62" d="M 3116 1747 
Q 3116 2381 2855 2742 
Q 2594 3103 2138 3103 
Q 1681 3103 1420 2742 
Q 1159 2381 1159 1747 
Q 1159 1113 1420 752 
Q 1681 391 2138 391 
Q 2594 391 2855 752 
Q 3116 1113 3116 1747 
z
M 1159 2969 
Q 1341 3281 1617 3432 
Q 1894 3584 2278 3584 
Q 2916 3584 3314 3078 
Q 3713 2572 3713 1747 
Q 3713 922 3314 415 
Q 2916 -91 2278 -91 
Q 1894 -91 1617 61 
Q 1341 213 1159 525 
L 1159 0 
L 581 0 
L 581 4863 
L 1159 4863 
L 1159 2969 
z
" transform="scale(0.015625)"/>
       <path id="DejaVuSans-61" d="M 2194 1759 
Q 1497 1759 1228 1600 
Q 959 1441 959 1056 
Q 959 750 1161 570 
Q 1363 391 1709 391 
Q 2188 391 2477 730 
Q 2766 1069 2766 1631 
L 2766 1759 
L 2194 1759 
z
M 3341 1997 
L 3341 0 
L 2766 0 
L 2766 531 
Q 2569 213 2275 61 
Q 1981 -91 1556 -91 
Q 1019 -91 701 211 
Q 384 513 384 1019 
Q 384 1609 779 1909 
Q 1175 2209 1959 2209 
L 2766 2209 
L 2766 2266 
Q 2766 2663 2505 2880 
Q 2244 3097 1772 3097 
Q 1472 3097 1187 3025 
Q 903 2953 641 2809 
L 641 3341 
Q 956 3463 1253 3523 
Q 1550 3584 1831 3584 
Q 2591 3584 2966 3190 
Q 3341 2797 3341 1997 
z
" transform="scale(0.015625)"/>
       <path id="DejaVuSans-6c" d="M 603 4863 
L 1178 4863 
L 1178 0 
L 603 0 
L 603 4863 
z
" transform="scale(0.015625)"/>
       <path id="DejaVuSans-79" d="M 2059 -325 
Q 1816 -950 1584 -1140 
Q 1353 -1331 966 -1331 
L 506 -1331 
L 506 -850 
L 844 -850 
Q 1081 -850 1212 -737 
Q 1344 -625 1503 -206 
L 1606 56 
L 191 3500 
L 800 3500 
L 1894 763 
L 2988 3500 
L 3597 3500 
L 2059 -325 
z
" transform="scale(0.015625)"/>
       <path id="DejaVuSans-64" d="M 2906 2969 
L 2906 4863 
L 3481 4863 
L 3481 0 
L 2906 0 
L 2906 525 
Q 2725 213 2448 61 
Q 2172 -91 1784 -91 
Q 1150 -91 751 415 
Q 353 922 353 1747 
Q 353 2572 751 3078 
Q 1150 3584 1784 3584 
Q 2172 3584 2448 3432 
Q 2725 3281 2906 2969 
z
M 947 1747 
Q 947 1113 1208 752 
Q 1469 391 1925 391 
Q 2381 391 2643 752 
Q 2906 1113 2906 1747 
Q 2906 2381 2643 2742 
Q 2381 3103 1925 3103 
Q 1469 3103 1208 2742 
Q 947 2381 947 1747 
z
" transform="scale(0.015625)"/>
       <path id="DejaVuSans-6e" d="M 3513 2113 
L 3513 0 
L 2938 0 
L 2938 2094 
Q 2938 2591 2744 2837 
Q 2550 3084 2163 3084 
Q 1697 3084 1428 2787 
Q 1159 2491 1159 1978 
L 1159 0 
L 581 0 
L 581 3500 
L 1159 3500 
L 1159 2956 
Q 1366 3272 1645 3428 
Q 1925 3584 2291 3584 
Q 2894 3584 3203 3211 
Q 3513 2838 3513 2113 
z
" transform="scale(0.015625)"/>
      </defs>
      <use xlink:href="#DejaVuSans-70"/>
      <use xlink:href="#DejaVuSans-72" x="63.476562"/>
      <use xlink:href="#DejaVuSans-6f" x="102.339844"/>
      <use xlink:href="#DejaVuSans-62" x="163.521484"/>
      <use xlink:href="#DejaVuSans-61" x="226.998047"/>
      <use xlink:href="#DejaVuSans-62" x="288.277344"/>
      <use xlink:href="#DejaVuSans-69" x="351.753906"/>
      <use xlink:href="#DejaVuSans-6c" x="379.537109"/>
      <use xlink:href="#DejaVuSans-69" x="407.320312"/>
      <use xlink:href="#DejaVuSans-74" x="435.103516"/>
      <use xlink:href="#DejaVuSans-79" x="474.3125"/>
      <use xlink:href="#DejaVuSans-20" x="533.492188"/>
      <use xlink:href="#DejaVuSans-64" x="565.279297"/>
      <use xlink:href="#DejaVuSans-65" x="628.755859"/>
      <use xlink:href="#DejaVuSans-6e" x="690.279297"/>
      <use xlink:href="#DejaVuSans-73" x="753.658203"/>
      <use xlink:href="#DejaVuSans-69" x="805.757812"/>
      <use xlink:href="#DejaVuSans-74" x="833.541016"/>
      <use xlink:href="#DejaVuSans-79" x="872.75"/>
     </g>
    </g>
   </g>
   <g id="LineCollection_1">
    <path d="M 189.450351 295.488 
L 189.450351 189.066063 
" clip-path="url(#p2476814fff)" style="fill: none; stroke: #1f77b4; stroke-width: 1.5"/>
   </g>
   <g id="patch_3">
    <path d="M 57.6 307.584 
L 57.6 41.472 
" style="fill: none; stroke: #000000; stroke-width: 0.8; stroke-linejoin: miter; stroke-linecap: square"/>
   </g>
   <g id="patch_4">
    <path d="M 414.72 307.584 
L 414.72 41.472 
" style="fill: none; stroke: #000000; stroke-width: 0.8; stroke-linejoin: miter; stroke-linecap: square"/>
   </g>
   <g id="patch_5">
    <path d="M 57.6 307.584 
L 414.72 307.584 
" style="fill: none; stroke: #000000; stroke-width: 0.8; stroke-linejoin: miter; stroke-linecap: square"/>
   </g>
   <g id="patch_6">
    <path d="M 57.6 41.472 
L 414.72 41.472 
" style="fill: none; stroke: #000000; stroke-width: 0.8; stroke-linejoin: miter; stroke-linecap: square"/>
   </g>
   <g id="text_12">
    <!-- ls -->
    <g transform="translate(231.3675 35.472) scale(0.12 -0.12)">
     <use xlink:href="#DejaVuSans-6c"/>
     <use xlink:href="#DejaVuSans-73" x="27.783203"/>
    </g>
   </g>
  </g>
 </g>
 <defs>
  <clipPath id="p2476814fff">
   <rect x="57.6" y="41.472" width="357.12" height="266.112"/>
  </clipPath>
 </defs>
</svg>
